<svg width="586" height="841" viewBox="0 0 586 841" fill="none" xmlns="http://www.w3.org/2000/svg">
<mask id="path-1-outside-1_207_219" maskUnits="userSpaceOnUse" x="-0.00170898" y="-0.999878" width="586" height="842" fill="black">
<rect fill="white" x="-0.00170898" y="-0.999878" width="586" height="842"/>
<path d="M294.114 218.873C32.2186 201.067 -30.886 492.372 40.114 598.373C13.7807 638.54 -13.9063 717.87 50.614 767.874C110.614 814.374 177.614 767.874 185.614 767.874C193.614 767.874 201.614 829.374 284.614 829.374C377.614 829.374 383.93 761.459 393.614 767.874C472.114 819.871 533.519 777.871 549.614 751.371C599.114 669.871 562.947 627.704 541.114 590.871C587.614 461.871 544.114 235.871 294.114 218.873Z"/>
<path d="M288.614 368.777C293.614 328.641 317.714 252.371 374.114 268.371C379.114 269.789 403.614 84.3709 444.614 20.3709C458.067 -0.628979 517.557 16.8643 512.614 41.371C500.614 100.871 444.614 224.371 420.614 280.871C440.01 291.371 468.333 332.271 426.458 411.871C416.077 399.265 399.76 386.465 374.114 377.371C354.628 370.461 337.297 367.124 322.114 366.285C317.953 366.056 313.953 366.013 310.114 366.137C302.275 366.389 295.109 367.332 288.614 368.777Z"/>
<path d="M138.53 595.725C143.731 598.362 147.638 600.182 150.252 601.185C152.96 602.223 157.165 603.407 162.867 604.737C164.333 605.942 165.044 607.018 165.002 607.966C164.96 608.914 164.713 609.836 164.262 610.734C163.846 611.539 163.571 612.397 163.435 613.309C163.3 614.221 163.918 615.261 165.291 616.43C166.023 617.033 165.935 617.962 165.024 619.22C164.243 620.42 162.941 621.58 161.118 622.702C156.497 625.535 151.782 626.94 146.971 626.916C139.604 626.019 133.953 624.976 130.017 623.788C123.489 621.82 116.669 618.937 109.558 615.138C101.914 610.493 99.2529 605.564 101.574 600.349C109.093 580.741 120.944 562.688 137.125 546.188C142.397 540.819 148.167 535.267 154.436 529.532C155.756 528.324 156.821 526.805 157.631 524.973C158.533 523.178 159.372 521.411 160.145 519.672C160.919 517.934 161.808 516.454 162.812 515.233C163.816 514.011 165.172 513.407 166.881 513.42C189.274 513.118 205.779 516.02 216.396 522.127C220.282 523.724 222.33 526.063 222.542 529.142C222.882 532.165 221.93 535.066 219.685 537.847C217.534 540.663 214.474 542.917 210.506 544.608C206.63 546.335 202.42 546.702 197.874 545.708C191.757 545.183 187.984 544.968 186.555 545.062C183.791 545.288 181.538 546.137 179.794 547.611C177.699 549.163 175.734 550.659 173.897 552.096C172.061 553.534 170.497 555.237 169.207 557.206L167.465 560.072C168.917 561.593 170.957 562.696 173.585 563.383C176.343 564.012 178.849 564.598 181.104 565.142C183.488 565.628 185.28 566.261 186.48 567.043C187.773 567.86 187.516 569.368 185.709 571.567C184.031 573.708 181.527 575.907 178.198 578.165C174.962 580.458 171.162 581.571 166.797 581.504C164.19 581.04 162.366 580.769 161.325 580.691C160.413 580.555 159.706 580.444 159.203 580.359C158.514 580.201 156.592 579.625 153.44 578.63C146.187 584.417 141.306 589.186 138.797 592.936C137.778 594.473 137.69 595.403 138.53 595.725Z"/>
<path d="M239.414 574.371C242.357 572.922 244.417 571.806 245.595 571.022C246.772 570.239 247.989 569.514 249.244 568.848C250.5 568.183 251.638 567.85 252.657 567.851C253.677 567.852 254.736 568.167 255.834 568.795C257.049 569.345 258.118 569.866 259.039 570.357C260.058 570.867 260.656 571.192 260.833 571.329C261.695 572.624 262.291 574.223 262.623 576.125C262.955 578.028 263.023 579.47 262.826 580.45C262.629 581.43 262.157 582.254 261.412 582.92C258.427 587.624 251.783 593.787 241.481 601.407C238.949 603.347 236.752 604.894 234.888 606.05C235.179 609.168 235.039 613.169 234.466 618.052C233.458 628.151 232.953 633.965 232.952 635.495C232.95 637.025 232.93 638.143 232.89 638.849C232.85 639.555 233.006 640.3 233.359 641.085C233.416 642.83 232.611 644.045 230.944 644.731C229.374 645.435 227.462 645.816 225.206 645.873C220.48 646.046 216.627 645.425 213.647 644.01C212.314 642.519 211.482 640.822 211.15 638.919C210.584 636.663 209.92 632.093 209.161 625.209C207.846 626.169 206.581 627.139 205.364 628.118C204.147 629.098 202.931 630.077 201.714 631.057L199.094 633.438C198.348 634.104 197.602 634.77 196.856 635.436C196.209 636.122 195.453 636.837 194.59 637.582C192.902 638.875 190.518 640.079 187.438 641.194C184.574 641.741 182.025 641.739 179.79 641.188C175.633 640.047 173.555 638.457 173.557 636.418C171.46 635.18 170.382 633.689 170.325 631.943C170.248 630.296 171.005 627.796 172.596 624.444C184.649 610.137 194.649 600.722 202.595 596.198C201.989 594.648 201.726 592.403 201.807 589.461C201.791 583.95 201.5 580.322 200.933 578.576C198.62 577.397 197.111 575.768 196.407 573.689C195.702 571.609 196.518 569.07 198.854 566.072L201.033 564.367C205.546 561.704 209.881 560.432 214.038 560.554C218.294 560.694 221.872 562.433 224.771 565.769C227.124 567.262 229.366 570.568 231.5 575.688C232.048 577.022 232.341 578.101 232.38 578.925C234.244 577.259 236.589 575.741 239.414 574.371Z"/>
<path d="M265.037 579.776C267.183 578.343 269.793 578.075 272.866 578.973C273.462 579.092 274.06 579.161 274.66 579.18C277.001 574.751 280.873 572.523 286.277 572.493C287.68 572.437 289.636 572.249 292.148 571.928C294.659 571.607 297.655 571.802 301.134 572.512C304.713 573.225 307.828 574.374 310.48 575.959C316.276 579.344 319.679 584.053 320.689 590.088C322.81 598.96 322.157 608.544 318.73 618.841C315.069 630.231 309.181 639.25 301.067 645.897C297.368 648.981 293.507 650.86 289.483 651.534C285.457 652.307 281.843 652.693 278.641 652.692C275.44 652.691 272.491 652.598 269.796 652.413C267.197 652.331 264.656 652 262.173 651.422C256.811 650.152 252.443 647.462 249.071 643.354C245.116 638.727 243.587 631.675 244.487 622.199C245.152 613.815 247.518 605.436 251.584 597.06C255.754 588.588 260.238 582.826 265.037 579.776ZM290.472 610.745C287.948 611.465 285.588 611.741 283.392 611.572C282.258 612.636 281.22 613.804 280.28 615.075C279.442 616.249 278.307 617.364 276.872 618.419C275.442 619.374 274.729 619.752 274.736 619.552C272.961 621.897 271.482 624.352 270.301 626.916C269.123 629.38 269.042 631.929 270.059 634.562C274.045 635.088 276.997 635.081 278.915 634.542C280.833 634.002 282.618 632.908 284.271 631.259C286.024 629.614 287.386 627.656 288.358 625.385C290.293 621.144 290.998 616.264 290.472 610.745Z"/>
<path d="M345.479 528.909L345.545 528.294L346.698 526.772C347.433 524.047 348.41 522.347 349.629 521.674C350.295 521.38 351.153 521.01 352.201 520.562C353.25 520.115 354.584 519.174 356.203 517.739C356.705 516.256 358.06 515.464 360.266 515.361C362.459 515.16 364.685 515.56 366.943 516.56C369.286 517.449 371.252 518.893 372.84 520.895C374.528 522.883 375.189 525.114 374.823 527.587C374.444 529.961 374.089 531.777 373.758 533.034C373.512 534.178 373.209 535.28 372.851 536.339C372.591 537.384 372.203 538.598 371.688 539.982C371.257 541.252 370.69 542.996 369.986 545.213L366.497 556.143C366.179 557.499 365.836 558.303 365.467 558.556C365.197 558.795 364.948 559.183 364.719 559.719C365.583 559.398 366.306 559.147 366.887 558.966C367.467 558.785 368.048 558.604 368.629 558.423C369.988 558.033 371.546 557.617 373.302 557.172C374.419 557.22 375.373 557.19 376.166 557.08L378.246 556.793C379.435 556.629 380.919 556.778 382.699 557.239C384.465 557.601 385.705 558.54 386.419 560.057C387.133 561.574 387.408 563.201 387.244 564.94C387.066 566.58 386.479 568.175 385.481 569.726C384.484 571.277 383.051 572.232 381.182 572.59C372.892 576.156 366.928 578.291 363.29 578.995L362.542 580.158L362.562 580.307C361.899 582.821 361.227 585.993 360.543 589.822C359.946 593.539 359.247 597.622 358.448 602.073C357.734 606.412 356.998 610.955 356.239 615.703C355.467 620.352 354.625 624.859 353.713 629.225C350.885 643.848 348.463 651.905 346.448 653.394C345.71 653.9 344.902 654.264 344.024 654.486C343.259 654.793 342.834 655.003 342.748 655.116C339.254 655.396 336.285 655.099 333.843 654.224C331.401 653.35 329.708 652.423 328.765 651.442C327.822 650.462 327.454 649.251 327.658 647.809C327.163 630.313 328.324 610.922 331.142 589.638C329.161 589.911 327.802 590.3 327.064 590.806C325.687 591.803 323.966 592.495 321.899 592.881L321.75 592.902C320.152 593.021 318.613 592.476 317.134 591.267C315.655 590.058 314.643 588.582 314.1 586.84C313.557 585.098 313.602 583.224 314.233 581.219C314.865 579.214 316.444 577.482 318.968 576.024C322.015 574.695 324.24 573.631 325.644 572.831C328.353 571.246 330.615 570.076 332.428 569.321C334.341 568.553 335.39 568.105 335.574 567.979C335.844 567.74 336.022 567.564 336.107 567.451C336.377 567.212 337.106 567.011 338.295 566.847C338.493 563.892 338.685 560.887 338.869 557.834C339.053 554.78 339.38 551.656 339.848 548.462C340.845 541.056 342.722 534.539 345.479 528.909Z"/>
<path d="M386.658 568.808C387.015 565.28 389.39 562.274 393.782 559.791C397.885 557.39 402.065 556.37 406.321 556.73C410.701 557.16 413.187 559.161 413.777 562.735C413.666 566.402 413.483 570.921 413.228 576.29C413.043 581.537 412.946 586.914 412.937 592.422C412.771 606.597 413.158 616.462 414.097 622.015C415.091 631.085 413.999 636.43 410.819 638.052C409.911 638.516 409.037 638.918 408.197 639.258C406.107 639.95 404.922 640.907 404.642 642.128C404.363 643.349 403.617 644.39 402.404 645.251C401.219 646.208 399.795 646.868 398.131 647.233C396.591 647.666 394.895 647.728 393.041 647.418C391.215 647.205 389.535 646.587 388.001 645.565C384.384 643.05 382.622 638.819 382.715 632.872C381.302 621.946 381.449 607.517 383.155 589.584C383.891 580.755 385.058 573.829 386.658 568.808ZM407.853 539.47C403.407 541.76 399.475 542.555 396.058 541.854C392.737 541.127 390.537 539.772 389.46 537.789C388.356 535.711 388.393 533.259 389.572 530.434C390.877 526.95 393.525 524.179 397.517 522.121C399.388 521.387 400.757 520.898 401.623 520.654C402.489 520.41 403.602 520.305 404.962 520.338C408.22 519.732 410.682 520.546 412.349 522.778C414.293 524.516 415.066 526.896 414.67 529.916C414.369 532.909 412.097 536.094 407.853 539.47Z"/>
<path d="M458.366 531.517C462.139 530.411 465.082 530.651 467.195 532.237C469.36 533.691 470.826 535.669 471.594 538.171C472.321 540.582 472.373 543.07 471.749 545.635C471.177 548.069 470.041 549.712 468.34 550.565C468.541 552.77 468.115 554.539 467.061 555.874C466.008 557.208 464.717 558.373 463.188 559.37C461.66 560.367 460.059 561.449 458.388 562.617C456.767 563.654 455.459 565.154 454.463 567.119C453.467 569.083 452.7 570.947 452.162 572.71C451.676 574.342 451.372 575.894 451.252 577.366C451.035 579.862 451.156 582.757 451.615 586.049C452.313 588.145 454.097 589.602 456.966 590.42C460.282 591.261 463.365 590.949 466.216 589.482C469.028 587.925 471.424 587.04 473.405 586.827C475.438 586.484 477.112 586.569 478.429 587.084C481.367 588.309 482.246 590.817 481.067 594.608C479.695 603.941 473.904 611.661 463.695 617.766C460.69 619.628 457.523 621.123 454.197 622.251C450.91 623.471 447.274 623.644 443.289 622.768C439.303 621.893 435.618 619.958 432.234 616.964C424.617 610.037 420.547 599.865 420.024 586.449C419.639 573.846 422.489 562.775 428.574 553.234C435.203 542.692 445.134 535.452 458.366 531.517Z"/>
<path d="M160.464 729.271C154.704 729.271 149.394 728.311 144.534 726.391C139.734 724.411 135.984 721.711 133.284 718.291C132.804 717.691 132.564 717.061 132.564 716.401C132.564 715.561 133.014 714.751 133.914 713.971C134.394 713.611 134.904 713.431 135.444 713.431C136.524 713.431 137.484 713.941 138.324 714.961C140.784 717.661 143.874 719.761 147.594 721.261C151.374 722.701 155.664 723.421 160.464 723.421C165.744 723.421 169.824 722.461 172.704 720.541C175.584 718.561 177.024 715.771 177.024 712.171C177.024 709.051 175.614 706.531 172.794 704.611C170.034 702.691 165.324 700.981 158.664 699.481C149.964 697.561 143.694 695.161 139.854 692.281C136.074 689.341 134.184 685.471 134.184 680.671C134.184 675.691 136.284 671.761 140.484 668.881C144.744 665.941 150.474 664.471 157.674 664.471C163.134 664.471 168.054 665.431 172.434 667.351C176.874 669.271 180.024 671.851 181.884 675.091C182.244 675.691 182.424 676.261 182.424 676.801C182.424 677.761 181.914 678.601 180.894 679.321C180.474 679.561 179.994 679.681 179.454 679.681C178.134 679.681 177.114 679.171 176.394 678.151C174.654 675.631 172.194 673.711 169.014 672.391C165.834 671.011 162.054 670.321 157.674 670.321C146.574 670.321 141.024 673.771 141.024 680.671C141.024 682.771 141.594 684.541 142.734 685.981C143.874 687.361 145.704 688.621 148.224 689.761C150.804 690.841 154.374 691.921 158.934 693.001C167.814 695.101 174.204 697.651 178.104 700.651C182.004 703.591 183.954 707.431 183.954 712.171C183.954 717.451 181.824 721.621 177.564 724.681C173.364 727.741 167.664 729.271 160.464 729.271Z"/>
<path d="M217.044 729.271C212.244 729.271 208.014 728.341 204.354 726.481C200.694 724.561 197.874 721.861 195.894 718.381C193.914 714.901 192.924 710.851 192.924 706.231C192.924 701.671 193.914 697.681 195.894 694.261C197.874 690.781 200.694 688.111 204.354 686.251C208.014 684.331 212.244 683.371 217.044 683.371C221.544 683.371 225.444 684.001 228.744 685.261C232.044 686.521 234.654 688.381 236.574 690.841C237.054 691.501 237.294 692.131 237.294 692.731C237.294 693.631 236.844 694.441 235.944 695.161C235.524 695.521 234.984 695.701 234.324 695.701C233.304 695.701 232.344 695.251 231.444 694.351C228.264 690.811 223.464 689.041 217.044 689.041C211.464 689.041 207.144 690.541 204.084 693.541C201.084 696.481 199.584 700.711 199.584 706.231C199.584 711.691 201.114 715.951 204.174 719.011C207.234 722.071 211.524 723.601 217.044 723.601C220.104 723.601 222.924 723.151 225.504 722.251C228.084 721.291 230.214 719.941 231.894 718.201C232.914 717.181 233.874 716.671 234.774 716.671C235.314 716.671 235.914 716.911 236.574 717.391C237.414 718.111 237.834 718.891 237.834 719.731C237.834 720.511 237.504 721.171 236.844 721.711C233.904 724.351 230.844 726.271 227.664 727.471C224.484 728.671 220.944 729.271 217.044 729.271Z"/>
<path d="M270.494 729.271C265.274 729.271 260.804 728.221 257.084 726.121C253.364 724.021 250.544 721.231 248.624 717.751C246.764 714.211 245.834 710.401 245.834 706.321C245.834 702.241 246.764 698.461 248.624 694.981C250.544 691.441 253.364 688.621 257.084 686.521C260.804 684.421 265.274 683.371 270.494 683.371C275.714 683.371 280.154 684.421 283.814 686.521C287.534 688.621 290.324 691.441 292.184 694.981C294.104 698.461 295.064 702.241 295.064 706.321C295.064 710.401 294.104 714.211 292.184 717.751C290.324 721.231 287.534 724.021 283.814 726.121C280.154 728.221 275.714 729.271 270.494 729.271ZM270.494 723.601C275.894 723.601 280.214 722.071 283.454 719.011C286.754 715.951 288.404 711.721 288.404 706.321C288.404 700.921 286.754 696.691 283.454 693.631C280.214 690.571 275.894 689.041 270.494 689.041C265.034 689.041 260.654 690.571 257.354 693.631C254.114 696.691 252.494 700.921 252.494 706.321C252.494 711.721 254.114 715.951 257.354 719.011C260.654 722.071 265.034 723.601 270.494 723.601Z"/>
<path d="M325.513 729.271C320.293 729.271 315.823 728.221 312.103 726.121C308.383 724.021 305.563 721.231 303.643 717.751C301.783 714.211 300.853 710.401 300.853 706.321C300.853 702.241 301.783 698.461 303.643 694.981C305.563 691.441 308.383 688.621 312.103 686.521C315.823 684.421 320.293 683.371 325.513 683.371C330.733 683.371 335.173 684.421 338.833 686.521C342.553 688.621 345.343 691.441 347.203 694.981C349.123 698.461 350.083 702.241 350.083 706.321C350.083 710.401 349.123 714.211 347.203 717.751C345.343 721.231 342.553 724.021 338.833 726.121C335.173 728.221 330.733 729.271 325.513 729.271ZM325.513 723.601C330.913 723.601 335.233 722.071 338.473 719.011C341.773 715.951 343.423 711.721 343.423 706.321C343.423 700.921 341.773 696.691 338.473 693.631C335.233 690.571 330.913 689.041 325.513 689.041C320.053 689.041 315.673 690.571 312.373 693.631C309.133 696.691 307.513 700.921 307.513 706.321C307.513 711.721 309.133 715.951 312.373 719.011C315.673 722.071 320.053 723.601 325.513 723.601Z"/>
<path d="M363.558 755.281C362.538 755.281 361.728 754.951 361.128 754.291C360.588 753.691 360.318 752.821 360.318 751.681V686.971C360.318 685.831 360.588 684.961 361.128 684.361C361.728 683.701 362.538 683.371 363.558 683.371C364.638 683.371 365.448 683.701 365.988 684.361C366.588 685.021 366.888 685.891 366.888 686.971V692.731C371.508 686.491 378.168 683.371 386.868 683.371C394.128 683.371 399.828 685.381 403.968 689.401C408.168 693.421 410.268 698.941 410.268 705.961C410.268 710.701 409.308 714.841 407.388 718.381C405.468 721.861 402.708 724.561 399.108 726.481C395.568 728.341 391.398 729.271 386.598 729.271C382.458 729.271 378.798 728.551 375.618 727.111C372.498 725.611 369.618 723.271 366.978 720.091V751.681C366.978 752.761 366.678 753.631 366.078 754.291C365.478 754.951 364.638 755.281 363.558 755.281ZM386.148 723.601C391.608 723.601 395.868 722.041 398.928 718.921C402.048 715.741 403.608 711.361 403.608 705.781C403.608 700.381 402.078 696.241 399.018 693.361C396.018 690.481 391.698 689.041 386.058 689.041C380.118 689.041 375.438 690.571 372.018 693.631C368.598 696.631 366.888 700.741 366.888 705.961C366.888 709.441 367.668 712.531 369.228 715.231C370.848 717.871 373.098 719.941 375.978 721.441C378.918 722.881 382.308 723.601 386.148 723.601Z"/>
<path d="M437.322 729.271C433.122 729.271 429.162 728.491 425.442 726.931C421.722 725.311 418.782 723.091 416.622 720.271C416.202 719.671 415.992 719.071 415.992 718.471C415.992 717.871 416.142 717.361 416.442 716.941C416.802 716.461 417.252 716.101 417.792 715.861C418.272 715.681 418.662 715.591 418.962 715.591C419.502 715.591 419.952 715.741 420.312 716.041C420.732 716.281 421.212 716.701 421.752 717.301C425.652 721.441 430.842 723.511 437.322 723.511C440.442 723.511 442.962 722.971 444.882 721.891C446.802 720.811 447.762 719.311 447.762 717.391C447.762 716.011 447.372 714.901 446.592 714.061C445.872 713.161 444.612 712.351 442.812 711.631C441.072 710.851 438.192 709.771 434.172 708.391C430.272 707.071 427.212 705.811 424.992 704.611C422.772 703.411 421.122 702.061 420.042 700.561C418.962 699.001 418.422 697.111 418.422 694.891C418.422 691.411 419.922 688.621 422.922 686.521C425.982 684.421 430.032 683.371 435.072 683.371C438.792 683.371 442.242 684.031 445.422 685.351C448.602 686.611 451.002 688.321 452.622 690.481C453.102 691.141 453.342 691.771 453.342 692.371C453.342 693.271 452.862 693.991 451.902 694.531C451.302 694.891 450.702 695.071 450.102 695.071C449.082 695.071 448.122 694.621 447.222 693.721C445.662 692.161 443.952 691.021 442.092 690.301C440.232 689.521 437.862 689.131 434.982 689.131C431.802 689.131 429.372 689.641 427.692 690.661C426.012 691.681 425.172 693.121 425.172 694.981C425.172 696.361 425.502 697.471 426.162 698.311C426.882 699.091 427.992 699.811 429.492 700.471C431.052 701.071 433.752 702.001 437.592 703.261C441.912 704.701 445.242 706.081 447.582 707.401C449.982 708.661 451.692 710.071 452.712 711.631C453.792 713.191 454.332 715.111 454.332 717.391C454.332 720.991 452.742 723.871 449.562 726.031C446.442 728.191 442.362 729.271 437.322 729.271Z"/>
</mask>
<path d="M294.114 218.873C32.2186 201.067 -30.886 492.372 40.114 598.373C13.7807 638.54 -13.9063 717.87 50.614 767.874C110.614 814.374 177.614 767.874 185.614 767.874C193.614 767.874 201.614 829.374 284.614 829.374C377.614 829.374 383.93 761.459 393.614 767.874C472.114 819.871 533.519 777.871 549.614 751.371C599.114 669.871 562.947 627.704 541.114 590.871C587.614 461.871 544.114 235.871 294.114 218.873Z" fill="#694B2D"/>
<path d="M288.614 368.777C293.614 328.641 317.714 252.371 374.114 268.371C379.114 269.789 403.614 84.3709 444.614 20.3709C458.067 -0.628979 517.557 16.8643 512.614 41.371C500.614 100.871 444.614 224.371 420.614 280.871C440.01 291.371 468.333 332.271 426.458 411.871C416.077 399.265 399.76 386.465 374.114 377.371C354.628 370.461 337.297 367.124 322.114 366.285C317.953 366.056 313.953 366.013 310.114 366.137C302.275 366.389 295.109 367.332 288.614 368.777Z" fill="#F3E8D4"/>
<path d="M138.53 595.725C143.731 598.362 147.638 600.182 150.252 601.185C152.96 602.223 157.165 603.407 162.867 604.737C164.333 605.942 165.044 607.018 165.002 607.966C164.96 608.914 164.713 609.836 164.262 610.734C163.846 611.539 163.571 612.397 163.435 613.309C163.3 614.221 163.918 615.261 165.291 616.43C166.023 617.033 165.935 617.962 165.024 619.22C164.243 620.42 162.941 621.58 161.118 622.702C156.497 625.535 151.782 626.94 146.971 626.916C139.604 626.019 133.953 624.976 130.017 623.788C123.489 621.82 116.669 618.937 109.558 615.138C101.914 610.493 99.2529 605.564 101.574 600.349C109.093 580.741 120.944 562.688 137.125 546.188C142.397 540.819 148.167 535.267 154.436 529.532C155.756 528.324 156.821 526.805 157.631 524.973C158.533 523.178 159.372 521.411 160.145 519.672C160.919 517.934 161.808 516.454 162.812 515.233C163.816 514.011 165.172 513.407 166.881 513.42C189.274 513.118 205.779 516.02 216.396 522.127C220.282 523.724 222.33 526.063 222.542 529.142C222.882 532.165 221.93 535.066 219.685 537.847C217.534 540.663 214.474 542.917 210.506 544.608C206.63 546.335 202.42 546.702 197.874 545.708C191.757 545.183 187.984 544.968 186.555 545.062C183.791 545.288 181.538 546.137 179.794 547.611C177.699 549.163 175.734 550.659 173.897 552.096C172.061 553.534 170.497 555.237 169.207 557.206L167.465 560.072C168.917 561.593 170.957 562.696 173.585 563.383C176.343 564.012 178.849 564.598 181.104 565.142C183.488 565.628 185.28 566.261 186.48 567.043C187.773 567.86 187.516 569.368 185.709 571.567C184.031 573.708 181.527 575.907 178.198 578.165C174.962 580.458 171.162 581.571 166.797 581.504C164.19 581.04 162.366 580.769 161.325 580.691C160.413 580.555 159.706 580.444 159.203 580.359C158.514 580.201 156.592 579.625 153.44 578.63C146.187 584.417 141.306 589.186 138.797 592.936C137.778 594.473 137.69 595.403 138.53 595.725Z" fill="#51371C"/>
<path d="M239.414 574.371C242.357 572.922 244.417 571.806 245.595 571.022C246.772 570.239 247.989 569.514 249.244 568.848C250.5 568.183 251.638 567.85 252.657 567.851C253.677 567.852 254.736 568.167 255.834 568.795C257.049 569.345 258.118 569.866 259.039 570.357C260.058 570.867 260.656 571.192 260.833 571.329C261.695 572.624 262.291 574.223 262.623 576.125C262.955 578.028 263.023 579.47 262.826 580.45C262.629 581.43 262.157 582.254 261.412 582.92C258.427 587.624 251.783 593.787 241.481 601.407C238.949 603.347 236.752 604.894 234.888 606.05C235.179 609.168 235.039 613.169 234.466 618.052C233.458 628.151 232.953 633.965 232.952 635.495C232.95 637.025 232.93 638.143 232.89 638.849C232.85 639.555 233.006 640.3 233.359 641.085C233.416 642.83 232.611 644.045 230.944 644.731C229.374 645.435 227.462 645.816 225.206 645.873C220.48 646.046 216.627 645.425 213.647 644.01C212.314 642.519 211.482 640.822 211.15 638.919C210.584 636.663 209.92 632.093 209.161 625.209C207.846 626.169 206.581 627.139 205.364 628.118C204.147 629.098 202.931 630.077 201.714 631.057L199.094 633.438C198.348 634.104 197.602 634.77 196.856 635.436C196.209 636.122 195.453 636.837 194.59 637.582C192.902 638.875 190.518 640.079 187.438 641.194C184.574 641.741 182.025 641.739 179.79 641.188C175.633 640.047 173.555 638.457 173.557 636.418C171.46 635.18 170.382 633.689 170.325 631.943C170.248 630.296 171.005 627.796 172.596 624.444C184.649 610.137 194.649 600.722 202.595 596.198C201.989 594.648 201.726 592.403 201.807 589.461C201.791 583.95 201.5 580.322 200.933 578.576C198.62 577.397 197.111 575.768 196.407 573.689C195.702 571.609 196.518 569.07 198.854 566.072L201.033 564.367C205.546 561.704 209.881 560.432 214.038 560.554C218.294 560.694 221.872 562.433 224.771 565.769C227.124 567.262 229.366 570.568 231.5 575.688C232.048 577.022 232.341 578.101 232.38 578.925C234.244 577.259 236.589 575.741 239.414 574.371Z" fill="#51371C"/>
<path d="M265.037 579.776C267.183 578.343 269.793 578.075 272.866 578.973C273.462 579.092 274.06 579.161 274.66 579.18C277.001 574.751 280.873 572.523 286.277 572.493C287.68 572.437 289.636 572.249 292.148 571.928C294.659 571.607 297.655 571.802 301.134 572.512C304.713 573.225 307.828 574.374 310.48 575.959C316.276 579.344 319.679 584.053 320.689 590.088C322.81 598.96 322.157 608.544 318.73 618.841C315.069 630.231 309.181 639.25 301.067 645.897C297.368 648.981 293.507 650.86 289.483 651.534C285.457 652.307 281.843 652.693 278.641 652.692C275.44 652.691 272.491 652.598 269.796 652.413C267.197 652.331 264.656 652 262.173 651.422C256.811 650.152 252.443 647.462 249.071 643.354C245.116 638.727 243.587 631.675 244.487 622.199C245.152 613.815 247.518 605.436 251.584 597.06C255.754 588.588 260.238 582.826 265.037 579.776ZM290.472 610.745C287.948 611.465 285.588 611.741 283.392 611.572C282.258 612.636 281.22 613.804 280.28 615.075C279.442 616.249 278.307 617.364 276.872 618.419C275.442 619.374 274.729 619.752 274.736 619.552C272.961 621.897 271.482 624.352 270.301 626.916C269.123 629.38 269.042 631.929 270.059 634.562C274.045 635.088 276.997 635.081 278.915 634.542C280.833 634.002 282.618 632.908 284.271 631.259C286.024 629.614 287.386 627.656 288.358 625.385C290.293 621.144 290.998 616.264 290.472 610.745Z" fill="#51371C"/>
<path d="M345.479 528.909L345.545 528.294L346.698 526.772C347.433 524.047 348.41 522.347 349.629 521.674C350.295 521.38 351.153 521.01 352.201 520.562C353.25 520.115 354.584 519.174 356.203 517.739C356.705 516.256 358.06 515.464 360.266 515.361C362.459 515.16 364.685 515.56 366.943 516.56C369.286 517.449 371.252 518.893 372.84 520.895C374.528 522.883 375.189 525.114 374.823 527.587C374.444 529.961 374.089 531.777 373.758 533.034C373.512 534.178 373.209 535.28 372.851 536.339C372.591 537.384 372.203 538.598 371.688 539.982C371.257 541.252 370.69 542.996 369.986 545.213L366.497 556.143C366.179 557.499 365.836 558.303 365.467 558.556C365.197 558.795 364.948 559.183 364.719 559.719C365.583 559.398 366.306 559.147 366.887 558.966C367.467 558.785 368.048 558.604 368.629 558.423C369.988 558.033 371.546 557.617 373.302 557.172C374.419 557.22 375.373 557.19 376.166 557.08L378.246 556.793C379.435 556.629 380.919 556.778 382.699 557.239C384.465 557.601 385.705 558.54 386.419 560.057C387.133 561.574 387.408 563.201 387.244 564.94C387.066 566.58 386.479 568.175 385.481 569.726C384.484 571.277 383.051 572.232 381.182 572.59C372.892 576.156 366.928 578.291 363.29 578.995L362.542 580.158L362.562 580.307C361.899 582.821 361.227 585.993 360.543 589.822C359.946 593.539 359.247 597.622 358.448 602.073C357.734 606.412 356.998 610.955 356.239 615.703C355.467 620.352 354.625 624.859 353.713 629.225C350.885 643.848 348.463 651.905 346.448 653.394C345.71 653.9 344.902 654.264 344.024 654.486C343.259 654.793 342.834 655.003 342.748 655.116C339.254 655.396 336.285 655.099 333.843 654.224C331.401 653.35 329.708 652.423 328.765 651.442C327.822 650.462 327.454 649.251 327.658 647.809C327.163 630.313 328.324 610.922 331.142 589.638C329.161 589.911 327.802 590.3 327.064 590.806C325.687 591.803 323.966 592.495 321.899 592.881L321.75 592.902C320.152 593.021 318.613 592.476 317.134 591.267C315.655 590.058 314.643 588.582 314.1 586.84C313.557 585.098 313.602 583.224 314.233 581.219C314.865 579.214 316.444 577.482 318.968 576.024C322.015 574.695 324.24 573.631 325.644 572.831C328.353 571.246 330.615 570.076 332.428 569.321C334.341 568.553 335.39 568.105 335.574 567.979C335.844 567.74 336.022 567.564 336.107 567.451C336.377 567.212 337.106 567.011 338.295 566.847C338.493 563.892 338.685 560.887 338.869 557.834C339.053 554.78 339.38 551.656 339.848 548.462C340.845 541.056 342.722 534.539 345.479 528.909Z" fill="#51371C"/>
<path d="M386.658 568.808C387.015 565.28 389.39 562.274 393.782 559.791C397.885 557.39 402.065 556.37 406.321 556.73C410.701 557.16 413.187 559.161 413.777 562.735C413.666 566.402 413.483 570.921 413.228 576.29C413.043 581.537 412.946 586.914 412.937 592.422C412.771 606.597 413.158 616.462 414.097 622.015C415.091 631.085 413.999 636.43 410.819 638.052C409.911 638.516 409.037 638.918 408.197 639.258C406.107 639.95 404.922 640.907 404.642 642.128C404.363 643.349 403.617 644.39 402.404 645.251C401.219 646.208 399.795 646.868 398.131 647.233C396.591 647.666 394.895 647.728 393.041 647.418C391.215 647.205 389.535 646.587 388.001 645.565C384.384 643.05 382.622 638.819 382.715 632.872C381.302 621.946 381.449 607.517 383.155 589.584C383.891 580.755 385.058 573.829 386.658 568.808ZM407.853 539.47C403.407 541.76 399.475 542.555 396.058 541.854C392.737 541.127 390.537 539.772 389.46 537.789C388.356 535.711 388.393 533.259 389.572 530.434C390.877 526.95 393.525 524.179 397.517 522.121C399.388 521.387 400.757 520.898 401.623 520.654C402.489 520.41 403.602 520.305 404.962 520.338C408.22 519.732 410.682 520.546 412.349 522.778C414.293 524.516 415.066 526.896 414.67 529.916C414.369 532.909 412.097 536.094 407.853 539.47Z" fill="#51371C"/>
<path d="M458.366 531.517C462.139 530.411 465.082 530.651 467.195 532.237C469.36 533.691 470.826 535.669 471.594 538.171C472.321 540.582 472.373 543.07 471.749 545.635C471.177 548.069 470.041 549.712 468.34 550.565C468.541 552.77 468.115 554.539 467.061 555.874C466.008 557.208 464.717 558.373 463.188 559.37C461.66 560.367 460.059 561.449 458.388 562.617C456.767 563.654 455.459 565.154 454.463 567.119C453.467 569.083 452.7 570.947 452.162 572.71C451.676 574.342 451.372 575.894 451.252 577.366C451.035 579.862 451.156 582.757 451.615 586.049C452.313 588.145 454.097 589.602 456.966 590.42C460.282 591.261 463.365 590.949 466.216 589.482C469.028 587.925 471.424 587.04 473.405 586.827C475.438 586.484 477.112 586.569 478.429 587.084C481.367 588.309 482.246 590.817 481.067 594.608C479.695 603.941 473.904 611.661 463.695 617.766C460.69 619.628 457.523 621.123 454.197 622.251C450.91 623.471 447.274 623.644 443.289 622.768C439.303 621.893 435.618 619.958 432.234 616.964C424.617 610.037 420.547 599.865 420.024 586.449C419.639 573.846 422.489 562.775 428.574 553.234C435.203 542.692 445.134 535.452 458.366 531.517Z" fill="#51371C"/>
<path d="M160.464 729.271C154.704 729.271 149.394 728.311 144.534 726.391C139.734 724.411 135.984 721.711 133.284 718.291C132.804 717.691 132.564 717.061 132.564 716.401C132.564 715.561 133.014 714.751 133.914 713.971C134.394 713.611 134.904 713.431 135.444 713.431C136.524 713.431 137.484 713.941 138.324 714.961C140.784 717.661 143.874 719.761 147.594 721.261C151.374 722.701 155.664 723.421 160.464 723.421C165.744 723.421 169.824 722.461 172.704 720.541C175.584 718.561 177.024 715.771 177.024 712.171C177.024 709.051 175.614 706.531 172.794 704.611C170.034 702.691 165.324 700.981 158.664 699.481C149.964 697.561 143.694 695.161 139.854 692.281C136.074 689.341 134.184 685.471 134.184 680.671C134.184 675.691 136.284 671.761 140.484 668.881C144.744 665.941 150.474 664.471 157.674 664.471C163.134 664.471 168.054 665.431 172.434 667.351C176.874 669.271 180.024 671.851 181.884 675.091C182.244 675.691 182.424 676.261 182.424 676.801C182.424 677.761 181.914 678.601 180.894 679.321C180.474 679.561 179.994 679.681 179.454 679.681C178.134 679.681 177.114 679.171 176.394 678.151C174.654 675.631 172.194 673.711 169.014 672.391C165.834 671.011 162.054 670.321 157.674 670.321C146.574 670.321 141.024 673.771 141.024 680.671C141.024 682.771 141.594 684.541 142.734 685.981C143.874 687.361 145.704 688.621 148.224 689.761C150.804 690.841 154.374 691.921 158.934 693.001C167.814 695.101 174.204 697.651 178.104 700.651C182.004 703.591 183.954 707.431 183.954 712.171C183.954 717.451 181.824 721.621 177.564 724.681C173.364 727.741 167.664 729.271 160.464 729.271Z" fill="#51371C"/>
<path d="M217.044 729.271C212.244 729.271 208.014 728.341 204.354 726.481C200.694 724.561 197.874 721.861 195.894 718.381C193.914 714.901 192.924 710.851 192.924 706.231C192.924 701.671 193.914 697.681 195.894 694.261C197.874 690.781 200.694 688.111 204.354 686.251C208.014 684.331 212.244 683.371 217.044 683.371C221.544 683.371 225.444 684.001 228.744 685.261C232.044 686.521 234.654 688.381 236.574 690.841C237.054 691.501 237.294 692.131 237.294 692.731C237.294 693.631 236.844 694.441 235.944 695.161C235.524 695.521 234.984 695.701 234.324 695.701C233.304 695.701 232.344 695.251 231.444 694.351C228.264 690.811 223.464 689.041 217.044 689.041C211.464 689.041 207.144 690.541 204.084 693.541C201.084 696.481 199.584 700.711 199.584 706.231C199.584 711.691 201.114 715.951 204.174 719.011C207.234 722.071 211.524 723.601 217.044 723.601C220.104 723.601 222.924 723.151 225.504 722.251C228.084 721.291 230.214 719.941 231.894 718.201C232.914 717.181 233.874 716.671 234.774 716.671C235.314 716.671 235.914 716.911 236.574 717.391C237.414 718.111 237.834 718.891 237.834 719.731C237.834 720.511 237.504 721.171 236.844 721.711C233.904 724.351 230.844 726.271 227.664 727.471C224.484 728.671 220.944 729.271 217.044 729.271Z" fill="#51371C"/>
<path d="M270.494 729.271C265.274 729.271 260.804 728.221 257.084 726.121C253.364 724.021 250.544 721.231 248.624 717.751C246.764 714.211 245.834 710.401 245.834 706.321C245.834 702.241 246.764 698.461 248.624 694.981C250.544 691.441 253.364 688.621 257.084 686.521C260.804 684.421 265.274 683.371 270.494 683.371C275.714 683.371 280.154 684.421 283.814 686.521C287.534 688.621 290.324 691.441 292.184 694.981C294.104 698.461 295.064 702.241 295.064 706.321C295.064 710.401 294.104 714.211 292.184 717.751C290.324 721.231 287.534 724.021 283.814 726.121C280.154 728.221 275.714 729.271 270.494 729.271ZM270.494 723.601C275.894 723.601 280.214 722.071 283.454 719.011C286.754 715.951 288.404 711.721 288.404 706.321C288.404 700.921 286.754 696.691 283.454 693.631C280.214 690.571 275.894 689.041 270.494 689.041C265.034 689.041 260.654 690.571 257.354 693.631C254.114 696.691 252.494 700.921 252.494 706.321C252.494 711.721 254.114 715.951 257.354 719.011C260.654 722.071 265.034 723.601 270.494 723.601Z" fill="#51371C"/>
<path d="M325.513 729.271C320.293 729.271 315.823 728.221 312.103 726.121C308.383 724.021 305.563 721.231 303.643 717.751C301.783 714.211 300.853 710.401 300.853 706.321C300.853 702.241 301.783 698.461 303.643 694.981C305.563 691.441 308.383 688.621 312.103 686.521C315.823 684.421 320.293 683.371 325.513 683.371C330.733 683.371 335.173 684.421 338.833 686.521C342.553 688.621 345.343 691.441 347.203 694.981C349.123 698.461 350.083 702.241 350.083 706.321C350.083 710.401 349.123 714.211 347.203 717.751C345.343 721.231 342.553 724.021 338.833 726.121C335.173 728.221 330.733 729.271 325.513 729.271ZM325.513 723.601C330.913 723.601 335.233 722.071 338.473 719.011C341.773 715.951 343.423 711.721 343.423 706.321C343.423 700.921 341.773 696.691 338.473 693.631C335.233 690.571 330.913 689.041 325.513 689.041C320.053 689.041 315.673 690.571 312.373 693.631C309.133 696.691 307.513 700.921 307.513 706.321C307.513 711.721 309.133 715.951 312.373 719.011C315.673 722.071 320.053 723.601 325.513 723.601Z" fill="#51371C"/>
<path d="M363.558 755.281C362.538 755.281 361.728 754.951 361.128 754.291C360.588 753.691 360.318 752.821 360.318 751.681V686.971C360.318 685.831 360.588 684.961 361.128 684.361C361.728 683.701 362.538 683.371 363.558 683.371C364.638 683.371 365.448 683.701 365.988 684.361C366.588 685.021 366.888 685.891 366.888 686.971V692.731C371.508 686.491 378.168 683.371 386.868 683.371C394.128 683.371 399.828 685.381 403.968 689.401C408.168 693.421 410.268 698.941 410.268 705.961C410.268 710.701 409.308 714.841 407.388 718.381C405.468 721.861 402.708 724.561 399.108 726.481C395.568 728.341 391.398 729.271 386.598 729.271C382.458 729.271 378.798 728.551 375.618 727.111C372.498 725.611 369.618 723.271 366.978 720.091V751.681C366.978 752.761 366.678 753.631 366.078 754.291C365.478 754.951 364.638 755.281 363.558 755.281ZM386.148 723.601C391.608 723.601 395.868 722.041 398.928 718.921C402.048 715.741 403.608 711.361 403.608 705.781C403.608 700.381 402.078 696.241 399.018 693.361C396.018 690.481 391.698 689.041 386.058 689.041C380.118 689.041 375.438 690.571 372.018 693.631C368.598 696.631 366.888 700.741 366.888 705.961C366.888 709.441 367.668 712.531 369.228 715.231C370.848 717.871 373.098 719.941 375.978 721.441C378.918 722.881 382.308 723.601 386.148 723.601Z" fill="#51371C"/>
<path d="M437.322 729.271C433.122 729.271 429.162 728.491 425.442 726.931C421.722 725.311 418.782 723.091 416.622 720.271C416.202 719.671 415.992 719.071 415.992 718.471C415.992 717.871 416.142 717.361 416.442 716.941C416.802 716.461 417.252 716.101 417.792 715.861C418.272 715.681 418.662 715.591 418.962 715.591C419.502 715.591 419.952 715.741 420.312 716.041C420.732 716.281 421.212 716.701 421.752 717.301C425.652 721.441 430.842 723.511 437.322 723.511C440.442 723.511 442.962 722.971 444.882 721.891C446.802 720.811 447.762 719.311 447.762 717.391C447.762 716.011 447.372 714.901 446.592 714.061C445.872 713.161 444.612 712.351 442.812 711.631C441.072 710.851 438.192 709.771 434.172 708.391C430.272 707.071 427.212 705.811 424.992 704.611C422.772 703.411 421.122 702.061 420.042 700.561C418.962 699.001 418.422 697.111 418.422 694.891C418.422 691.411 419.922 688.621 422.922 686.521C425.982 684.421 430.032 683.371 435.072 683.371C438.792 683.371 442.242 684.031 445.422 685.351C448.602 686.611 451.002 688.321 452.622 690.481C453.102 691.141 453.342 691.771 453.342 692.371C453.342 693.271 452.862 693.991 451.902 694.531C451.302 694.891 450.702 695.071 450.102 695.071C449.082 695.071 448.122 694.621 447.222 693.721C445.662 692.161 443.952 691.021 442.092 690.301C440.232 689.521 437.862 689.131 434.982 689.131C431.802 689.131 429.372 689.641 427.692 690.661C426.012 691.681 425.172 693.121 425.172 694.981C425.172 696.361 425.502 697.471 426.162 698.311C426.882 699.091 427.992 699.811 429.492 700.471C431.052 701.071 433.752 702.001 437.592 703.261C441.912 704.701 445.242 706.081 447.582 707.401C449.982 708.661 451.692 710.071 452.712 711.631C453.792 713.191 454.332 715.111 454.332 717.391C454.332 720.991 452.742 723.871 449.562 726.031C446.442 728.191 442.362 729.271 437.322 729.271Z" fill="#51371C"/>
<path d="M294.114 218.873C32.2186 201.067 -30.886 492.372 40.114 598.373C13.7807 638.54 -13.9063 717.87 50.614 767.874C110.614 814.374 177.614 767.874 185.614 767.874C193.614 767.874 201.614 829.374 284.614 829.374C377.614 829.374 383.93 761.459 393.614 767.874C472.114 819.871 533.519 777.871 549.614 751.371C599.114 669.871 562.947 627.704 541.114 590.871C587.614 461.871 544.114 235.871 294.114 218.873Z" stroke="#51371C" stroke-width="22" mask="url(#path-1-outside-1_207_219)"/>
<path d="M288.614 368.777C293.614 328.641 317.714 252.371 374.114 268.371C379.114 269.789 403.614 84.3709 444.614 20.3709C458.067 -0.628979 517.557 16.8643 512.614 41.371C500.614 100.871 444.614 224.371 420.614 280.871C440.01 291.371 468.333 332.271 426.458 411.871C416.077 399.265 399.76 386.465 374.114 377.371C354.628 370.461 337.297 367.124 322.114 366.285C317.953 366.056 313.953 366.013 310.114 366.137C302.275 366.389 295.109 367.332 288.614 368.777Z" stroke="#51371C" stroke-width="22" mask="url(#path-1-outside-1_207_219)"/>
<path d="M138.53 595.725C143.731 598.362 147.638 600.182 150.252 601.185C152.96 602.223 157.165 603.407 162.867 604.737C164.333 605.942 165.044 607.018 165.002 607.966C164.96 608.914 164.713 609.836 164.262 610.734C163.846 611.539 163.571 612.397 163.435 613.309C163.3 614.221 163.918 615.261 165.291 616.43C166.023 617.033 165.935 617.962 165.024 619.22C164.243 620.42 162.941 621.58 161.118 622.702C156.497 625.535 151.782 626.94 146.971 626.916C139.604 626.019 133.953 624.976 130.017 623.788C123.489 621.82 116.669 618.937 109.558 615.138C101.914 610.493 99.2529 605.564 101.574 600.349C109.093 580.741 120.944 562.688 137.125 546.188C142.397 540.819 148.167 535.267 154.436 529.532C155.756 528.324 156.821 526.805 157.631 524.973C158.533 523.178 159.372 521.411 160.145 519.672C160.919 517.934 161.808 516.454 162.812 515.233C163.816 514.011 165.172 513.407 166.881 513.42C189.274 513.118 205.779 516.02 216.396 522.127C220.282 523.724 222.33 526.063 222.542 529.142C222.882 532.165 221.93 535.066 219.685 537.847C217.534 540.663 214.474 542.917 210.506 544.608C206.63 546.335 202.42 546.702 197.874 545.708C191.757 545.183 187.984 544.968 186.555 545.062C183.791 545.288 181.538 546.137 179.794 547.611C177.699 549.163 175.734 550.659 173.897 552.096C172.061 553.534 170.497 555.237 169.207 557.206L167.465 560.072C168.917 561.593 170.957 562.696 173.585 563.383C176.343 564.012 178.849 564.598 181.104 565.142C183.488 565.628 185.28 566.261 186.48 567.043C187.773 567.86 187.516 569.368 185.709 571.567C184.031 573.708 181.527 575.907 178.198 578.165C174.962 580.458 171.162 581.571 166.797 581.504C164.19 581.04 162.366 580.769 161.325 580.691C160.413 580.555 159.706 580.444 159.203 580.359C158.514 580.201 156.592 579.625 153.44 578.63C146.187 584.417 141.306 589.186 138.797 592.936C137.778 594.473 137.69 595.403 138.53 595.725Z" stroke="#51371C" stroke-width="22" mask="url(#path-1-outside-1_207_219)"/>
<path d="M239.414 574.371C242.357 572.922 244.417 571.806 245.595 571.022C246.772 570.239 247.989 569.514 249.244 568.848C250.5 568.183 251.638 567.85 252.657 567.851C253.677 567.852 254.736 568.167 255.834 568.795C257.049 569.345 258.118 569.866 259.039 570.357C260.058 570.867 260.656 571.192 260.833 571.329C261.695 572.624 262.291 574.223 262.623 576.125C262.955 578.028 263.023 579.47 262.826 580.45C262.629 581.43 262.157 582.254 261.412 582.92C258.427 587.624 251.783 593.787 241.481 601.407C238.949 603.347 236.752 604.894 234.888 606.05C235.179 609.168 235.039 613.169 234.466 618.052C233.458 628.151 232.953 633.965 232.952 635.495C232.95 637.025 232.93 638.143 232.89 638.849C232.85 639.555 233.006 640.3 233.359 641.085C233.416 642.83 232.611 644.045 230.944 644.731C229.374 645.435 227.462 645.816 225.206 645.873C220.48 646.046 216.627 645.425 213.647 644.01C212.314 642.519 211.482 640.822 211.15 638.919C210.584 636.663 209.92 632.093 209.161 625.209C207.846 626.169 206.581 627.139 205.364 628.118C204.147 629.098 202.931 630.077 201.714 631.057L199.094 633.438C198.348 634.104 197.602 634.77 196.856 635.436C196.209 636.122 195.453 636.837 194.59 637.582C192.902 638.875 190.518 640.079 187.438 641.194C184.574 641.741 182.025 641.739 179.79 641.188C175.633 640.047 173.555 638.457 173.557 636.418C171.46 635.18 170.382 633.689 170.325 631.943C170.248 630.296 171.005 627.796 172.596 624.444C184.649 610.137 194.649 600.722 202.595 596.198C201.989 594.648 201.726 592.403 201.807 589.461C201.791 583.95 201.5 580.322 200.933 578.576C198.62 577.397 197.111 575.768 196.407 573.689C195.702 571.609 196.518 569.07 198.854 566.072L201.033 564.367C205.546 561.704 209.881 560.432 214.038 560.554C218.294 560.694 221.872 562.433 224.771 565.769C227.124 567.262 229.366 570.568 231.5 575.688C232.048 577.022 232.341 578.101 232.38 578.925C234.244 577.259 236.589 575.741 239.414 574.371Z" stroke="#51371C" stroke-width="22" mask="url(#path-1-outside-1_207_219)"/>
<path d="M265.037 579.776C267.183 578.343 269.793 578.075 272.866 578.973C273.462 579.092 274.06 579.161 274.66 579.18C277.001 574.751 280.873 572.523 286.277 572.493C287.68 572.437 289.636 572.249 292.148 571.928C294.659 571.607 297.655 571.802 301.134 572.512C304.713 573.225 307.828 574.374 310.48 575.959C316.276 579.344 319.679 584.053 320.689 590.088C322.81 598.96 322.157 608.544 318.73 618.841C315.069 630.231 309.181 639.25 301.067 645.897C297.368 648.981 293.507 650.86 289.483 651.534C285.457 652.307 281.843 652.693 278.641 652.692C275.44 652.691 272.491 652.598 269.796 652.413C267.197 652.331 264.656 652 262.173 651.422C256.811 650.152 252.443 647.462 249.071 643.354C245.116 638.727 243.587 631.675 244.487 622.199C245.152 613.815 247.518 605.436 251.584 597.06C255.754 588.588 260.238 582.826 265.037 579.776ZM290.472 610.745C287.948 611.465 285.588 611.741 283.392 611.572C282.258 612.636 281.22 613.804 280.28 615.075C279.442 616.249 278.307 617.364 276.872 618.419C275.442 619.374 274.729 619.752 274.736 619.552C272.961 621.897 271.482 624.352 270.301 626.916C269.123 629.38 269.042 631.929 270.059 634.562C274.045 635.088 276.997 635.081 278.915 634.542C280.833 634.002 282.618 632.908 284.271 631.259C286.024 629.614 287.386 627.656 288.358 625.385C290.293 621.144 290.998 616.264 290.472 610.745Z" stroke="#51371C" stroke-width="22" mask="url(#path-1-outside-1_207_219)"/>
<path d="M345.479 528.909L345.545 528.294L346.698 526.772C347.433 524.047 348.41 522.347 349.629 521.674C350.295 521.38 351.153 521.01 352.201 520.562C353.25 520.115 354.584 519.174 356.203 517.739C356.705 516.256 358.06 515.464 360.266 515.361C362.459 515.16 364.685 515.56 366.943 516.56C369.286 517.449 371.252 518.893 372.84 520.895C374.528 522.883 375.189 525.114 374.823 527.587C374.444 529.961 374.089 531.777 373.758 533.034C373.512 534.178 373.209 535.28 372.851 536.339C372.591 537.384 372.203 538.598 371.688 539.982C371.257 541.252 370.69 542.996 369.986 545.213L366.497 556.143C366.179 557.499 365.836 558.303 365.467 558.556C365.197 558.795 364.948 559.183 364.719 559.719C365.583 559.398 366.306 559.147 366.887 558.966C367.467 558.785 368.048 558.604 368.629 558.423C369.988 558.033 371.546 557.617 373.302 557.172C374.419 557.22 375.373 557.19 376.166 557.08L378.246 556.793C379.435 556.629 380.919 556.778 382.699 557.239C384.465 557.601 385.705 558.54 386.419 560.057C387.133 561.574 387.408 563.201 387.244 564.94C387.066 566.58 386.479 568.175 385.481 569.726C384.484 571.277 383.051 572.232 381.182 572.59C372.892 576.156 366.928 578.291 363.29 578.995L362.542 580.158L362.562 580.307C361.899 582.821 361.227 585.993 360.543 589.822C359.946 593.539 359.247 597.622 358.448 602.073C357.734 606.412 356.998 610.955 356.239 615.703C355.467 620.352 354.625 624.859 353.713 629.225C350.885 643.848 348.463 651.905 346.448 653.394C345.71 653.9 344.902 654.264 344.024 654.486C343.259 654.793 342.834 655.003 342.748 655.116C339.254 655.396 336.285 655.099 333.843 654.224C331.401 653.35 329.708 652.423 328.765 651.442C327.822 650.462 327.454 649.251 327.658 647.809C327.163 630.313 328.324 610.922 331.142 589.638C329.161 589.911 327.802 590.3 327.064 590.806C325.687 591.803 323.966 592.495 321.899 592.881L321.75 592.902C320.152 593.021 318.613 592.476 317.134 591.267C315.655 590.058 314.643 588.582 314.1 586.84C313.557 585.098 313.602 583.224 314.233 581.219C314.865 579.214 316.444 577.482 318.968 576.024C322.015 574.695 324.24 573.631 325.644 572.831C328.353 571.246 330.615 570.076 332.428 569.321C334.341 568.553 335.39 568.105 335.574 567.979C335.844 567.74 336.022 567.564 336.107 567.451C336.377 567.212 337.106 567.011 338.295 566.847C338.493 563.892 338.685 560.887 338.869 557.834C339.053 554.78 339.38 551.656 339.848 548.462C340.845 541.056 342.722 534.539 345.479 528.909Z" stroke="#51371C" stroke-width="22" mask="url(#path-1-outside-1_207_219)"/>
<path d="M386.658 568.808C387.015 565.28 389.39 562.274 393.782 559.791C397.885 557.39 402.065 556.37 406.321 556.73C410.701 557.16 413.187 559.161 413.777 562.735C413.666 566.402 413.483 570.921 413.228 576.29C413.043 581.537 412.946 586.914 412.937 592.422C412.771 606.597 413.158 616.462 414.097 622.015C415.091 631.085 413.999 636.43 410.819 638.052C409.911 638.516 409.037 638.918 408.197 639.258C406.107 639.95 404.922 640.907 404.642 642.128C404.363 643.349 403.617 644.39 402.404 645.251C401.219 646.208 399.795 646.868 398.131 647.233C396.591 647.666 394.895 647.728 393.041 647.418C391.215 647.205 389.535 646.587 388.001 645.565C384.384 643.05 382.622 638.819 382.715 632.872C381.302 621.946 381.449 607.517 383.155 589.584C383.891 580.755 385.058 573.829 386.658 568.808ZM407.853 539.47C403.407 541.76 399.475 542.555 396.058 541.854C392.737 541.127 390.537 539.772 389.46 537.789C388.356 535.711 388.393 533.259 389.572 530.434C390.877 526.95 393.525 524.179 397.517 522.121C399.388 521.387 400.757 520.898 401.623 520.654C402.489 520.41 403.602 520.305 404.962 520.338C408.22 519.732 410.682 520.546 412.349 522.778C414.293 524.516 415.066 526.896 414.67 529.916C414.369 532.909 412.097 536.094 407.853 539.47Z" stroke="#51371C" stroke-width="22" mask="url(#path-1-outside-1_207_219)"/>
<path d="M458.366 531.517C462.139 530.411 465.082 530.651 467.195 532.237C469.36 533.691 470.826 535.669 471.594 538.171C472.321 540.582 472.373 543.07 471.749 545.635C471.177 548.069 470.041 549.712 468.34 550.565C468.541 552.77 468.115 554.539 467.061 555.874C466.008 557.208 464.717 558.373 463.188 559.37C461.66 560.367 460.059 561.449 458.388 562.617C456.767 563.654 455.459 565.154 454.463 567.119C453.467 569.083 452.7 570.947 452.162 572.71C451.676 574.342 451.372 575.894 451.252 577.366C451.035 579.862 451.156 582.757 451.615 586.049C452.313 588.145 454.097 589.602 456.966 590.42C460.282 591.261 463.365 590.949 466.216 589.482C469.028 587.925 471.424 587.04 473.405 586.827C475.438 586.484 477.112 586.569 478.429 587.084C481.367 588.309 482.246 590.817 481.067 594.608C479.695 603.941 473.904 611.661 463.695 617.766C460.69 619.628 457.523 621.123 454.197 622.251C450.91 623.471 447.274 623.644 443.289 622.768C439.303 621.893 435.618 619.958 432.234 616.964C424.617 610.037 420.547 599.865 420.024 586.449C419.639 573.846 422.489 562.775 428.574 553.234C435.203 542.692 445.134 535.452 458.366 531.517Z" stroke="#51371C" stroke-width="22" mask="url(#path-1-outside-1_207_219)"/>
<path d="M160.464 729.271C154.704 729.271 149.394 728.311 144.534 726.391C139.734 724.411 135.984 721.711 133.284 718.291C132.804 717.691 132.564 717.061 132.564 716.401C132.564 715.561 133.014 714.751 133.914 713.971C134.394 713.611 134.904 713.431 135.444 713.431C136.524 713.431 137.484 713.941 138.324 714.961C140.784 717.661 143.874 719.761 147.594 721.261C151.374 722.701 155.664 723.421 160.464 723.421C165.744 723.421 169.824 722.461 172.704 720.541C175.584 718.561 177.024 715.771 177.024 712.171C177.024 709.051 175.614 706.531 172.794 704.611C170.034 702.691 165.324 700.981 158.664 699.481C149.964 697.561 143.694 695.161 139.854 692.281C136.074 689.341 134.184 685.471 134.184 680.671C134.184 675.691 136.284 671.761 140.484 668.881C144.744 665.941 150.474 664.471 157.674 664.471C163.134 664.471 168.054 665.431 172.434 667.351C176.874 669.271 180.024 671.851 181.884 675.091C182.244 675.691 182.424 676.261 182.424 676.801C182.424 677.761 181.914 678.601 180.894 679.321C180.474 679.561 179.994 679.681 179.454 679.681C178.134 679.681 177.114 679.171 176.394 678.151C174.654 675.631 172.194 673.711 169.014 672.391C165.834 671.011 162.054 670.321 157.674 670.321C146.574 670.321 141.024 673.771 141.024 680.671C141.024 682.771 141.594 684.541 142.734 685.981C143.874 687.361 145.704 688.621 148.224 689.761C150.804 690.841 154.374 691.921 158.934 693.001C167.814 695.101 174.204 697.651 178.104 700.651C182.004 703.591 183.954 707.431 183.954 712.171C183.954 717.451 181.824 721.621 177.564 724.681C173.364 727.741 167.664 729.271 160.464 729.271Z" stroke="#51371C" stroke-width="22" mask="url(#path-1-outside-1_207_219)"/>
<path d="M217.044 729.271C212.244 729.271 208.014 728.341 204.354 726.481C200.694 724.561 197.874 721.861 195.894 718.381C193.914 714.901 192.924 710.851 192.924 706.231C192.924 701.671 193.914 697.681 195.894 694.261C197.874 690.781 200.694 688.111 204.354 686.251C208.014 684.331 212.244 683.371 217.044 683.371C221.544 683.371 225.444 684.001 228.744 685.261C232.044 686.521 234.654 688.381 236.574 690.841C237.054 691.501 237.294 692.131 237.294 692.731C237.294 693.631 236.844 694.441 235.944 695.161C235.524 695.521 234.984 695.701 234.324 695.701C233.304 695.701 232.344 695.251 231.444 694.351C228.264 690.811 223.464 689.041 217.044 689.041C211.464 689.041 207.144 690.541 204.084 693.541C201.084 696.481 199.584 700.711 199.584 706.231C199.584 711.691 201.114 715.951 204.174 719.011C207.234 722.071 211.524 723.601 217.044 723.601C220.104 723.601 222.924 723.151 225.504 722.251C228.084 721.291 230.214 719.941 231.894 718.201C232.914 717.181 233.874 716.671 234.774 716.671C235.314 716.671 235.914 716.911 236.574 717.391C237.414 718.111 237.834 718.891 237.834 719.731C237.834 720.511 237.504 721.171 236.844 721.711C233.904 724.351 230.844 726.271 227.664 727.471C224.484 728.671 220.944 729.271 217.044 729.271Z" stroke="#51371C" stroke-width="22" mask="url(#path-1-outside-1_207_219)"/>
<path d="M270.494 729.271C265.274 729.271 260.804 728.221 257.084 726.121C253.364 724.021 250.544 721.231 248.624 717.751C246.764 714.211 245.834 710.401 245.834 706.321C245.834 702.241 246.764 698.461 248.624 694.981C250.544 691.441 253.364 688.621 257.084 686.521C260.804 684.421 265.274 683.371 270.494 683.371C275.714 683.371 280.154 684.421 283.814 686.521C287.534 688.621 290.324 691.441 292.184 694.981C294.104 698.461 295.064 702.241 295.064 706.321C295.064 710.401 294.104 714.211 292.184 717.751C290.324 721.231 287.534 724.021 283.814 726.121C280.154 728.221 275.714 729.271 270.494 729.271ZM270.494 723.601C275.894 723.601 280.214 722.071 283.454 719.011C286.754 715.951 288.404 711.721 288.404 706.321C288.404 700.921 286.754 696.691 283.454 693.631C280.214 690.571 275.894 689.041 270.494 689.041C265.034 689.041 260.654 690.571 257.354 693.631C254.114 696.691 252.494 700.921 252.494 706.321C252.494 711.721 254.114 715.951 257.354 719.011C260.654 722.071 265.034 723.601 270.494 723.601Z" stroke="#51371C" stroke-width="22" mask="url(#path-1-outside-1_207_219)"/>
<path d="M325.513 729.271C320.293 729.271 315.823 728.221 312.103 726.121C308.383 724.021 305.563 721.231 303.643 717.751C301.783 714.211 300.853 710.401 300.853 706.321C300.853 702.241 301.783 698.461 303.643 694.981C305.563 691.441 308.383 688.621 312.103 686.521C315.823 684.421 320.293 683.371 325.513 683.371C330.733 683.371 335.173 684.421 338.833 686.521C342.553 688.621 345.343 691.441 347.203 694.981C349.123 698.461 350.083 702.241 350.083 706.321C350.083 710.401 349.123 714.211 347.203 717.751C345.343 721.231 342.553 724.021 338.833 726.121C335.173 728.221 330.733 729.271 325.513 729.271ZM325.513 723.601C330.913 723.601 335.233 722.071 338.473 719.011C341.773 715.951 343.423 711.721 343.423 706.321C343.423 700.921 341.773 696.691 338.473 693.631C335.233 690.571 330.913 689.041 325.513 689.041C320.053 689.041 315.673 690.571 312.373 693.631C309.133 696.691 307.513 700.921 307.513 706.321C307.513 711.721 309.133 715.951 312.373 719.011C315.673 722.071 320.053 723.601 325.513 723.601Z" stroke="#51371C" stroke-width="22" mask="url(#path-1-outside-1_207_219)"/>
<path d="M363.558 755.281C362.538 755.281 361.728 754.951 361.128 754.291C360.588 753.691 360.318 752.821 360.318 751.681V686.971C360.318 685.831 360.588 684.961 361.128 684.361C361.728 683.701 362.538 683.371 363.558 683.371C364.638 683.371 365.448 683.701 365.988 684.361C366.588 685.021 366.888 685.891 366.888 686.971V692.731C371.508 686.491 378.168 683.371 386.868 683.371C394.128 683.371 399.828 685.381 403.968 689.401C408.168 693.421 410.268 698.941 410.268 705.961C410.268 710.701 409.308 714.841 407.388 718.381C405.468 721.861 402.708 724.561 399.108 726.481C395.568 728.341 391.398 729.271 386.598 729.271C382.458 729.271 378.798 728.551 375.618 727.111C372.498 725.611 369.618 723.271 366.978 720.091V751.681C366.978 752.761 366.678 753.631 366.078 754.291C365.478 754.951 364.638 755.281 363.558 755.281ZM386.148 723.601C391.608 723.601 395.868 722.041 398.928 718.921C402.048 715.741 403.608 711.361 403.608 705.781C403.608 700.381 402.078 696.241 399.018 693.361C396.018 690.481 391.698 689.041 386.058 689.041C380.118 689.041 375.438 690.571 372.018 693.631C368.598 696.631 366.888 700.741 366.888 705.961C366.888 709.441 367.668 712.531 369.228 715.231C370.848 717.871 373.098 719.941 375.978 721.441C378.918 722.881 382.308 723.601 386.148 723.601Z" stroke="#51371C" stroke-width="22" mask="url(#path-1-outside-1_207_219)"/>
<path d="M437.322 729.271C433.122 729.271 429.162 728.491 425.442 726.931C421.722 725.311 418.782 723.091 416.622 720.271C416.202 719.671 415.992 719.071 415.992 718.471C415.992 717.871 416.142 717.361 416.442 716.941C416.802 716.461 417.252 716.101 417.792 715.861C418.272 715.681 418.662 715.591 418.962 715.591C419.502 715.591 419.952 715.741 420.312 716.041C420.732 716.281 421.212 716.701 421.752 717.301C425.652 721.441 430.842 723.511 437.322 723.511C440.442 723.511 442.962 722.971 444.882 721.891C446.802 720.811 447.762 719.311 447.762 717.391C447.762 716.011 447.372 714.901 446.592 714.061C445.872 713.161 444.612 712.351 442.812 711.631C441.072 710.851 438.192 709.771 434.172 708.391C430.272 707.071 427.212 705.811 424.992 704.611C422.772 703.411 421.122 702.061 420.042 700.561C418.962 699.001 418.422 697.111 418.422 694.891C418.422 691.411 419.922 688.621 422.922 686.521C425.982 684.421 430.032 683.371 435.072 683.371C438.792 683.371 442.242 684.031 445.422 685.351C448.602 686.611 451.002 688.321 452.622 690.481C453.102 691.141 453.342 691.771 453.342 692.371C453.342 693.271 452.862 693.991 451.902 694.531C451.302 694.891 450.702 695.071 450.102 695.071C449.082 695.071 448.122 694.621 447.222 693.721C445.662 692.161 443.952 691.021 442.092 690.301C440.232 689.521 437.862 689.131 434.982 689.131C431.802 689.131 429.372 689.641 427.692 690.661C426.012 691.681 425.172 693.121 425.172 694.981C425.172 696.361 425.502 697.471 426.162 698.311C426.882 699.091 427.992 699.811 429.492 700.471C431.052 701.071 433.752 702.001 437.592 703.261C441.912 704.701 445.242 706.081 447.582 707.401C449.982 708.661 451.692 710.071 452.712 711.631C453.792 713.191 454.332 715.111 454.332 717.391C454.332 720.991 452.742 723.871 449.562 726.031C446.442 728.191 442.362 729.271 437.322 729.271Z" stroke="#51371C" stroke-width="22" mask="url(#path-1-outside-1_207_219)"/>
</svg>
