<svg width="564" height="819" viewBox="0 0 564 819" fill="none" xmlns="http://www.w3.org/2000/svg">
<path d="M283.116 207.873C21.2203 190.067 -41.8843 481.372 29.1157 587.373C2.78237 627.54 -24.9046 706.87 39.6157 756.873C99.6157 803.373 166.616 756.873 174.616 756.873C182.616 756.873 190.616 818.373 273.616 818.373C366.616 818.373 372.931 750.459 382.616 756.873C461.116 808.871 522.521 766.871 538.616 740.371C588.116 658.871 551.949 616.704 530.116 579.871C576.616 450.871 533.116 224.871 283.116 207.873Z" fill="#694B2D"/>
<path d="M277.616 357.776C282.616 317.641 306.716 241.371 363.116 257.371C368.116 258.789 392.616 73.3708 433.616 9.37081C447.069 -11.6291 506.558 5.86417 501.616 30.3708C489.616 89.8706 433.616 213.371 409.616 269.871C429.012 280.371 457.335 321.271 415.46 400.871C405.079 388.265 388.762 375.465 363.116 366.371C343.63 359.461 326.298 356.124 311.116 355.285C306.954 355.055 302.954 355.013 299.116 355.137C291.277 355.389 284.11 356.332 277.616 357.776Z" fill="#F3E8D4"/>
<path d="M127.532 584.725C132.732 587.362 136.64 589.182 139.254 590.185C141.962 591.223 146.167 592.407 151.868 593.737C153.334 594.942 154.046 596.018 154.004 596.966C153.962 597.913 153.715 598.836 153.264 599.734C152.848 600.539 152.572 601.397 152.437 602.309C152.301 603.221 152.92 604.261 154.292 605.43C155.025 606.032 154.936 606.962 154.026 608.22C153.244 609.419 151.942 610.58 150.12 611.702C145.499 614.535 140.783 615.94 135.973 615.916C128.606 615.018 122.955 613.976 119.019 612.788C112.491 610.82 105.671 607.936 98.5595 604.138C90.9158 599.493 88.2546 594.564 90.5757 589.349C98.0951 569.741 109.945 551.687 126.126 535.187C131.398 529.819 137.169 524.267 143.438 518.532C144.758 517.324 145.823 515.805 146.632 513.973C147.535 512.177 148.373 510.41 149.147 508.672C149.921 506.934 150.81 505.454 151.814 504.233C152.818 503.011 154.174 502.407 155.883 502.419C178.275 502.118 194.781 505.02 205.398 511.127C209.284 512.724 211.332 515.062 211.543 518.142C211.884 521.165 210.932 524.066 208.687 526.847C206.536 529.663 203.476 531.917 199.507 533.608C195.632 535.335 191.422 535.702 186.876 534.708C180.759 534.183 176.985 533.968 175.557 534.062C172.793 534.288 170.539 535.137 168.796 536.61C166.701 538.163 164.735 539.659 162.899 541.096C161.062 542.534 159.499 544.237 158.208 546.206L156.467 549.072C157.918 550.592 159.958 551.696 162.587 552.383C165.344 553.012 167.851 553.598 170.106 554.142C172.49 554.628 174.282 555.261 175.481 556.043C176.774 556.86 176.517 558.368 174.71 560.567C173.032 562.708 170.529 564.907 167.2 567.165C163.964 569.458 160.163 570.571 155.798 570.504C153.192 570.039 151.368 569.768 150.327 569.69C149.415 569.555 148.707 569.444 148.205 569.359C147.515 569.201 145.594 568.625 142.441 567.63C135.188 573.417 130.307 578.185 127.798 581.936C126.78 583.473 126.691 584.403 127.532 584.725Z" fill="#51371C"/>
<path d="M228.416 563.371C231.359 561.922 233.419 560.806 234.596 560.022C235.774 559.239 236.99 558.514 238.246 557.848C239.502 557.183 240.639 556.85 241.659 556.851C242.679 556.852 243.738 557.166 244.836 557.795C246.051 558.345 247.119 558.866 248.041 559.357C249.06 559.867 249.658 560.191 249.834 560.329C250.696 561.624 251.293 563.223 251.625 565.125C251.957 567.028 252.024 568.469 251.827 569.45C251.63 570.43 251.159 571.254 250.413 571.92C247.429 576.624 240.785 582.787 230.483 590.407C227.951 592.347 225.753 593.894 223.889 595.05C224.181 598.168 224.04 602.169 223.468 607.052C222.459 617.151 221.955 622.965 221.953 624.495C221.952 626.025 221.932 627.143 221.892 627.849C221.852 628.554 222.008 629.3 222.361 630.085C222.418 631.83 221.613 633.045 219.945 633.73C218.376 634.435 216.463 634.816 214.208 634.873C209.481 635.046 205.628 634.425 202.649 633.01C201.316 631.519 200.484 629.822 200.152 627.919C199.585 625.663 198.922 621.093 198.163 614.209C196.848 615.169 195.582 616.139 194.366 617.118C193.149 618.098 191.932 619.077 190.716 620.057L188.095 622.438C187.35 623.104 186.604 623.77 185.858 624.436C185.21 625.122 184.455 625.837 183.591 626.582C181.904 627.875 179.52 629.079 176.44 630.194C173.576 630.741 171.027 630.739 168.791 630.188C164.635 629.047 162.557 627.457 162.559 625.417C160.461 624.18 159.384 622.689 159.326 620.943C159.249 619.296 160.006 616.796 161.598 613.444C173.651 599.137 183.651 589.722 191.597 585.198C190.99 583.648 190.727 581.402 190.808 578.461C190.793 572.95 190.502 569.322 189.935 567.576C187.621 566.397 186.113 564.768 185.408 562.689C184.704 560.609 185.52 558.07 187.856 555.071L190.034 553.367C194.547 550.704 198.882 549.432 203.04 549.553C207.296 549.694 210.873 551.433 213.773 554.769C216.125 556.261 218.368 559.568 220.502 564.688C221.05 566.022 221.343 567.101 221.382 567.925C223.246 566.259 225.591 564.741 228.416 563.371Z" fill="#51371C"/>
<path d="M254.038 568.776C256.185 567.343 258.794 567.075 261.868 567.973C262.464 568.092 263.062 568.161 263.662 568.18C266.003 563.751 269.875 561.522 275.279 561.493C276.681 561.437 278.638 561.249 281.15 560.928C283.661 560.607 286.656 560.802 290.136 561.512C293.715 562.225 296.83 563.374 299.481 564.959C305.277 568.343 308.68 573.053 309.69 579.088C311.811 587.96 311.159 597.544 307.732 607.841C304.07 619.231 298.183 628.249 290.069 634.897C286.37 637.981 282.508 639.86 278.485 640.534C274.459 641.307 270.845 641.693 267.643 641.692C264.442 641.691 261.493 641.598 258.797 641.413C256.199 641.33 253.658 641 251.175 640.421C245.812 639.151 241.445 636.462 238.073 632.354C234.117 627.727 232.589 620.675 233.489 611.198C234.154 602.815 236.519 594.436 240.586 586.06C244.755 577.587 249.24 571.826 254.038 568.776ZM279.473 599.745C276.949 600.465 274.589 600.741 272.394 600.571C271.259 601.636 270.222 602.804 269.281 604.075C268.444 605.249 267.308 606.364 265.874 607.419C264.443 608.374 263.731 608.752 263.737 608.552C261.962 610.897 260.484 613.352 259.303 615.916C258.124 618.38 258.044 620.929 259.061 623.562C263.047 624.088 265.998 624.081 267.916 623.542C269.834 623.002 271.62 621.908 273.273 620.259C275.025 618.613 276.388 616.656 277.36 614.385C279.295 610.144 279.999 605.264 279.473 599.745Z" fill="#51371C"/>
<path d="M334.48 517.909L334.547 517.294L335.7 515.772C336.434 513.046 337.411 511.347 338.631 510.674C339.297 510.38 340.154 510.01 341.203 509.562C342.252 509.115 343.586 508.174 345.205 506.739C345.707 505.256 347.061 504.464 349.268 504.361C351.461 504.16 353.686 504.559 355.944 505.56C358.288 506.448 360.254 507.893 361.842 509.895C363.53 511.883 364.191 514.114 363.825 516.587C363.446 518.961 363.091 520.777 362.759 522.034C362.513 523.178 362.211 524.28 361.852 525.339C361.593 526.384 361.205 527.598 360.689 528.982C360.259 530.252 359.692 531.996 358.988 534.213L355.499 545.142C355.181 546.499 354.838 547.303 354.469 547.556C354.199 547.795 353.95 548.183 353.721 548.719C354.585 548.398 355.308 548.147 355.888 547.966C356.469 547.785 357.05 547.604 357.63 547.423C358.99 547.033 360.548 546.616 362.303 546.172C363.42 546.22 364.375 546.189 365.168 546.08L367.248 545.793C368.437 545.629 369.921 545.778 371.701 546.239C373.467 546.601 374.707 547.54 375.421 549.057C376.135 550.574 376.41 552.201 376.246 553.94C376.068 555.58 375.48 557.175 374.483 558.726C373.486 560.277 372.053 561.231 370.184 561.59C361.894 565.156 355.929 567.291 352.291 567.995L351.543 569.158L351.564 569.307C350.901 571.821 350.228 574.993 349.545 578.822C348.947 582.538 348.249 586.622 347.449 591.073C346.736 595.411 345.999 599.955 345.241 604.703C344.469 609.352 343.627 613.859 342.715 618.225C339.887 632.848 337.465 640.905 335.45 642.394C334.712 642.9 333.904 643.264 333.026 643.486C332.261 643.793 331.836 644.003 331.75 644.116C328.256 644.396 325.287 644.099 322.845 643.224C320.402 642.35 318.71 641.423 317.767 640.442C316.824 639.462 316.455 638.251 316.66 636.809C316.165 619.313 317.326 599.922 320.144 578.638C318.163 578.911 316.803 579.3 316.065 579.806C314.689 580.803 312.967 581.495 310.901 581.881L310.752 581.902C309.153 582.021 307.614 581.476 306.135 580.267C304.656 579.058 303.645 577.582 303.102 575.84C302.559 574.098 302.603 572.224 303.235 570.219C303.867 568.214 305.445 566.482 307.97 565.023C311.017 563.695 313.242 562.631 314.646 561.831C317.355 560.246 319.616 559.076 321.43 558.321C323.343 557.553 324.392 557.105 324.576 556.979C324.846 556.74 325.024 556.564 325.109 556.451C325.379 556.212 326.108 556.01 327.297 555.846C327.495 552.892 327.686 549.887 327.871 546.833C328.055 543.78 328.381 540.656 328.849 537.462C329.847 530.056 331.724 523.538 334.48 517.909Z" fill="#51371C"/>
<path d="M375.66 557.808C376.017 554.279 378.392 551.274 382.783 548.791C386.886 546.39 391.066 545.37 395.323 545.73C399.703 546.16 402.188 548.161 402.778 551.735C402.668 555.402 402.485 559.92 402.23 565.29C402.044 570.537 401.947 575.914 401.939 581.422C401.773 595.597 402.159 605.461 403.099 611.015C404.093 620.084 403 625.43 399.821 627.052C398.912 627.516 398.038 627.917 397.199 628.257C395.109 628.95 393.923 629.907 393.644 631.128C393.364 632.349 392.618 633.39 391.406 634.251C390.221 635.208 388.797 635.868 387.133 636.232C385.593 636.666 383.896 636.728 382.043 636.418C380.217 636.205 378.537 635.587 377.003 634.564C373.386 632.05 371.624 627.819 371.717 621.872C370.304 610.946 370.451 596.517 372.157 578.584C372.892 569.754 374.06 562.829 375.66 557.808ZM396.855 528.47C392.409 530.76 388.477 531.554 385.06 530.854C381.738 530.127 379.539 528.772 378.462 526.789C377.357 524.711 377.395 522.259 378.573 519.434C379.878 515.95 382.527 513.179 386.519 511.121C388.39 510.387 389.758 509.898 390.625 509.654C391.491 509.41 392.604 509.305 393.964 509.337C397.222 508.732 399.684 509.546 401.351 511.778C403.295 513.516 404.068 515.895 403.671 518.916C403.371 521.909 401.099 525.094 396.855 528.47Z" fill="#51371C"/>
<path d="M447.367 520.517C451.141 519.411 454.084 519.651 456.197 521.237C458.362 522.691 459.828 524.669 460.595 527.171C461.323 529.581 461.375 532.069 460.751 534.635C460.179 537.068 459.043 538.712 457.342 539.565C457.543 541.77 457.117 543.539 456.063 544.874C455.01 546.208 453.719 547.373 452.19 548.37C450.661 549.366 449.061 550.449 447.389 551.617C445.769 552.654 444.461 554.154 443.465 556.118C442.469 558.083 441.702 559.947 441.164 561.71C440.677 563.342 440.374 564.894 440.254 566.366C440.037 568.862 440.158 571.757 440.616 575.049C441.315 577.145 443.099 578.602 445.968 579.42C449.283 580.261 452.367 579.949 455.218 578.482C458.029 576.924 460.425 576.039 462.407 575.827C464.439 575.483 466.114 575.569 467.431 576.084C470.369 577.309 471.248 579.817 470.069 583.608C468.696 592.941 462.906 600.661 452.697 606.766C449.691 608.628 446.525 610.123 443.198 611.251C439.912 612.471 436.276 612.644 432.291 611.768C428.305 610.893 424.62 608.958 421.236 605.964C413.619 599.036 409.549 588.865 409.026 575.449C408.64 562.846 411.49 551.774 417.576 542.234C424.205 531.691 434.135 524.452 447.367 520.517Z" fill="#51371C"/>
<path d="M149.466 718.271C143.706 718.271 138.396 717.311 133.536 715.391C128.736 713.411 124.986 710.711 122.286 707.291C121.806 706.691 121.566 706.061 121.566 705.401C121.566 704.561 122.016 703.751 122.916 702.971C123.396 702.611 123.906 702.431 124.446 702.431C125.526 702.431 126.486 702.941 127.326 703.961C129.786 706.661 132.876 708.761 136.596 710.261C140.376 711.701 144.666 712.421 149.466 712.421C154.746 712.421 158.826 711.461 161.706 709.541C164.586 707.561 166.026 704.771 166.026 701.171C166.026 698.051 164.616 695.531 161.796 693.611C159.036 691.691 154.326 689.981 147.666 688.481C138.966 686.561 132.696 684.161 128.856 681.281C125.076 678.341 123.186 674.471 123.186 669.671C123.186 664.691 125.286 660.761 129.486 657.881C133.746 654.941 139.476 653.471 146.676 653.471C152.136 653.471 157.056 654.431 161.436 656.351C165.876 658.271 169.026 660.851 170.886 664.091C171.246 664.691 171.426 665.261 171.426 665.801C171.426 666.761 170.916 667.601 169.896 668.321C169.476 668.561 168.996 668.681 168.456 668.681C167.136 668.681 166.116 668.171 165.396 667.151C163.656 664.631 161.196 662.711 158.016 661.391C154.836 660.011 151.056 659.321 146.676 659.321C135.576 659.321 130.026 662.771 130.026 669.671C130.026 671.771 130.596 673.541 131.736 674.981C132.876 676.361 134.706 677.621 137.226 678.761C139.806 679.841 143.376 680.921 147.936 682.001C156.816 684.101 163.206 686.651 167.106 689.651C171.006 692.591 172.956 696.431 172.956 701.171C172.956 706.451 170.826 710.621 166.566 713.681C162.366 716.741 156.666 718.271 149.466 718.271Z" fill="#51371C"/>
<path d="M206.045 718.271C201.245 718.271 197.015 717.341 193.355 715.481C189.695 713.561 186.875 710.861 184.895 707.381C182.915 703.901 181.925 699.851 181.925 695.231C181.925 690.671 182.915 686.681 184.895 683.261C186.875 679.781 189.695 677.111 193.355 675.251C197.015 673.331 201.245 672.371 206.045 672.371C210.545 672.371 214.445 673.001 217.745 674.261C221.045 675.521 223.655 677.381 225.575 679.841C226.055 680.501 226.295 681.131 226.295 681.731C226.295 682.631 225.845 683.441 224.945 684.161C224.525 684.521 223.985 684.701 223.325 684.701C222.305 684.701 221.345 684.251 220.445 683.351C217.265 679.811 212.465 678.041 206.045 678.041C200.465 678.041 196.145 679.541 193.085 682.541C190.085 685.481 188.585 689.711 188.585 695.231C188.585 700.691 190.115 704.951 193.175 708.011C196.235 711.071 200.525 712.601 206.045 712.601C209.105 712.601 211.925 712.151 214.505 711.251C217.085 710.291 219.215 708.941 220.895 707.201C221.915 706.181 222.876 705.671 223.775 705.671C224.315 705.671 224.915 705.911 225.575 706.391C226.415 707.111 226.835 707.891 226.835 708.731C226.835 709.511 226.505 710.171 225.845 710.711C222.905 713.351 219.845 715.271 216.665 716.471C213.485 717.671 209.945 718.271 206.045 718.271Z" fill="#51371C"/>
<path d="M259.496 718.271C254.276 718.271 249.806 717.221 246.086 715.121C242.366 713.021 239.546 710.231 237.626 706.751C235.766 703.211 234.836 699.401 234.836 695.321C234.836 691.241 235.766 687.461 237.626 683.981C239.546 680.441 242.366 677.621 246.086 675.521C249.806 673.421 254.276 672.371 259.496 672.371C264.716 672.371 269.156 673.421 272.816 675.521C276.536 677.621 279.326 680.441 281.186 683.981C283.106 687.461 284.066 691.241 284.066 695.321C284.066 699.401 283.106 703.211 281.186 706.751C279.326 710.231 276.536 713.021 272.816 715.121C269.156 717.221 264.716 718.271 259.496 718.271ZM259.496 712.601C264.896 712.601 269.216 711.071 272.456 708.011C275.756 704.951 277.406 700.721 277.406 695.321C277.406 689.921 275.756 685.691 272.456 682.631C269.216 679.571 264.896 678.041 259.496 678.041C254.036 678.041 249.656 679.571 246.356 682.631C243.116 685.691 241.496 689.921 241.496 695.321C241.496 700.721 243.116 704.951 246.356 708.011C249.656 711.071 254.036 712.601 259.496 712.601Z" fill="#51371C"/>
<path d="M314.515 718.271C309.295 718.271 304.825 717.221 301.105 715.121C297.385 713.021 294.565 710.231 292.645 706.751C290.785 703.211 289.855 699.401 289.855 695.321C289.855 691.241 290.785 687.461 292.645 683.981C294.565 680.441 297.385 677.621 301.105 675.521C304.825 673.421 309.295 672.371 314.515 672.371C319.735 672.371 324.175 673.421 327.835 675.521C331.555 677.621 334.345 680.441 336.205 683.981C338.125 687.461 339.085 691.241 339.085 695.321C339.085 699.401 338.125 703.211 336.205 706.751C334.345 710.231 331.555 713.021 327.835 715.121C324.175 717.221 319.735 718.271 314.515 718.271ZM314.515 712.601C319.915 712.601 324.235 711.071 327.475 708.011C330.775 704.951 332.425 700.721 332.425 695.321C332.425 689.921 330.775 685.691 327.475 682.631C324.235 679.571 319.915 678.041 314.515 678.041C309.055 678.041 304.675 679.571 301.375 682.631C298.135 685.691 296.515 689.921 296.515 695.321C296.515 700.721 298.135 704.951 301.375 708.011C304.675 711.071 309.055 712.601 314.515 712.601Z" fill="#51371C"/>
<path d="M352.56 744.281C351.54 744.281 350.73 743.951 350.13 743.291C349.59 742.691 349.32 741.821 349.32 740.681V675.971C349.32 674.831 349.59 673.961 350.13 673.361C350.73 672.701 351.54 672.371 352.56 672.371C353.64 672.371 354.45 672.701 354.99 673.361C355.59 674.021 355.89 674.891 355.89 675.971V681.731C360.51 675.491 367.17 672.371 375.87 672.371C383.13 672.371 388.83 674.381 392.97 678.401C397.17 682.421 399.27 687.941 399.27 694.961C399.27 699.701 398.31 703.841 396.39 707.381C394.47 710.861 391.71 713.561 388.11 715.481C384.57 717.341 380.4 718.271 375.6 718.271C371.46 718.271 367.8 717.551 364.62 716.111C361.5 714.611 358.62 712.271 355.98 709.091V740.681C355.98 741.761 355.68 742.631 355.08 743.291C354.48 743.951 353.64 744.281 352.56 744.281ZM375.15 712.601C380.61 712.601 384.87 711.041 387.93 707.921C391.05 704.741 392.61 700.361 392.61 694.781C392.61 689.381 391.08 685.241 388.02 682.361C385.02 679.481 380.7 678.041 375.06 678.041C369.12 678.041 364.44 679.571 361.02 682.631C357.6 685.631 355.89 689.741 355.89 694.961C355.89 698.441 356.67 701.531 358.23 704.231C359.85 706.871 362.1 708.941 364.98 710.441C367.92 711.881 371.31 712.601 375.15 712.601Z" fill="#51371C"/>
<path d="M426.324 718.271C422.124 718.271 418.164 717.491 414.444 715.931C410.724 714.311 407.784 712.091 405.624 709.271C405.204 708.671 404.994 708.071 404.994 707.471C404.994 706.871 405.144 706.361 405.444 705.941C405.804 705.461 406.254 705.101 406.794 704.861C407.274 704.681 407.664 704.591 407.964 704.591C408.504 704.591 408.954 704.741 409.314 705.041C409.734 705.281 410.214 705.701 410.754 706.301C414.654 710.441 419.844 712.511 426.324 712.511C429.444 712.511 431.964 711.971 433.884 710.891C435.804 709.811 436.764 708.311 436.764 706.391C436.764 705.011 436.374 703.901 435.594 703.061C434.874 702.161 433.614 701.351 431.814 700.631C430.074 699.851 427.194 698.771 423.174 697.391C419.274 696.071 416.214 694.811 413.994 693.611C411.774 692.411 410.124 691.061 409.044 689.561C407.964 688.001 407.424 686.111 407.424 683.891C407.424 680.411 408.924 677.621 411.924 675.521C414.984 673.421 419.034 672.371 424.074 672.371C427.794 672.371 431.244 673.031 434.424 674.351C437.604 675.611 440.004 677.321 441.624 679.481C442.104 680.141 442.344 680.771 442.344 681.371C442.344 682.271 441.864 682.991 440.904 683.531C440.304 683.891 439.704 684.071 439.104 684.071C438.084 684.071 437.124 683.621 436.224 682.721C434.664 681.161 432.954 680.021 431.094 679.301C429.234 678.521 426.864 678.131 423.984 678.131C420.804 678.131 418.374 678.641 416.694 679.661C415.014 680.681 414.174 682.121 414.174 683.981C414.174 685.361 414.504 686.471 415.164 687.311C415.884 688.091 416.994 688.811 418.494 689.471C420.054 690.071 422.754 691.001 426.594 692.261C430.914 693.701 434.244 695.081 436.584 696.401C438.984 697.661 440.694 699.071 441.714 700.631C442.794 702.191 443.334 704.111 443.334 706.391C443.334 709.991 441.744 712.871 438.564 715.031C435.444 717.191 431.364 718.271 426.324 718.271Z" fill="#51371C"/>
</svg>
